<svg xmlns="http://www.w3.org/2000/svg" viewBox="0 0 512 512" width="512" height="512">
  <!-- Background -->
  <rect width="512" height="512" rx="100" fill="#f97316"/>
  
  <!-- Coffee cup icon in white/slate -->
  <g transform="translate(128, 128)">
    <!-- Cup -->
    <path d="M48 192 L48 256 C48 284.7 70.1 308.3 98.4 313.6 C106.9 340.8 131.5 360 160 360 C188.5 360 213.1 340.8 221.6 313.6 C249.9 308.3 272 284.7 272 256 L272 192 Z" 
          fill="#ffffff" stroke="#1e293b" stroke-width="8"/>
    
    <!-- Handle -->
    <path d="M272 200 C272 200 296 200 296 224 C296 248 272 248 272 248" 
          fill="none" stroke="#1e293b" stroke-width="12" stroke-linecap="round"/>
    
    <!-- Steam lines -->
    <path d="M120 144 Q120 120 100 120" 
          fill="none" stroke="#ffffff" stroke-width="8" stroke-linecap="round" opacity="0.8"/>
    <path d="M160 144 Q160 112 160 96" 
          fill="none" stroke="#ffffff" stroke-width="8" stroke-linecap="round" opacity="0.8"/>
    <path d="M200 144 Q200 120 220 120" 
          fill="none" stroke="#ffffff" stroke-width="8" stroke-linecap="round" opacity="0.8"/>
  </g>
  
  <!-- Rounded border for polish -->
  <rect width="512" height="512" rx="100" fill="none" stroke="#1e293b" stroke-width="4" opacity="0.2"/>
</svg>
